# xmcd
#
# Track frame offsets: 
#        150
#        14611
#        26161
#        44761
#        60710
#        79478
#        98078
#        109403
#        134090
#        146436
#        159391
#        173372
#        184987
#        205457
#        236418
#
# Disc length: 4649 seconds
#
# Revision: 1
# Processed by: cddbd v1.5.2PL0 Copyright (c) Steve Scherf et al.
# Submitted via: ExactAudioCopy v0.99pb4
#
DISCID=db12270f
DTITLE=King Khan and The Shrines - What Is?!
DYEAR=2007
DGENRE=Rock ´n´ Roll
TTITLE0=(How Can I Keep You) Outta Harms Way
TTITLE1=I Wanna Be a Girl
TTITLE2=Welfare Bread
TTITLE3=Land of the Freak
TTITLE4=I See Lights
TTITLE5=69 Faces of Love
TTITLE6=No Regrets
TTITLE7=Cosmic Serenade
TTITLE8=Le Fils de Jaques Dutronc
TTITLE9=Let Me Holler
TTITLE10=In Your Grave
TTITLE11=Take a Little Bit
TTITLE12=Fear and Love
TTITLE13=The Ballad of Lady Godiva
TTITLE14=Video
EXTD=
EXTT0=
EXTT1=
EXTT2=
EXTT3=
EXTT4=
EXTT5=
EXTT6=
EXTT7=
EXTT8=
EXTT9=
EXTT10=
EXTT11=
EXTT12=
EXTT13=
EXTT14=
PLAYORDER=
